<svg xmlns="http://www.w3.org/2000/svg" height="71.065" width="84.6"><path d="M64.4 29.765c1 .9 2.2 1.4 3.4 1.4 1.3 0 2.7-.5 3.6-1.6l13.2-14-13.1-14c-1.9-2-5.1-2.1-7.1-.2-2 1.9-2.1 5.1-.2 7.1l2 2.1c-6.7.3-13 3.3-17.5 8.2l-8.3 9.3-8.3-9.2c-4.8-5.3-11.5-8.3-18.6-8.3H5c-2.8 0-5 2.2-5 5s2.2 5 5 5h8.5c4.2 0 8.3 1.8 11.1 5l9 10-9 10c-2.8 3.2-6.9 5-11.1 5H5c-2.8 0-5 2.2-5 5s2.2 5 5 5h8.5c7.1 0 13.8-3 18.6-8.3l8.3-9.2 8.3 9.2c4.5 5 10.8 8 17.5 8.2l-2 2.1c-1.9 2-1.8 5.2.2 7.1 1 .9 2.2 1.4 3.4 1.4 1.3 0 2.7-.5 3.6-1.6l13.2-14-13.1-13.9c-1.9-2-5.1-2.1-7.1-.2-2 1.9-2.1 5.1-.2 7.1l1.9 2c-3.8-.3-7.4-2-10-4.9l-9-10 9-10c2.6-2.9 6.2-4.6 10-4.9l-1.9 2c-1.8 2-1.8 5.2.2 7.1z"/></svg>